<svg width="144" height="41" viewBox="0 0 144 41" fill="none" xmlns="http://www.w3.org/2000/svg">
<g id="Group">
<g id="Group_2">
<g id="Group 1410132672">
<path id="Vector" d="M40.601 20.8984C40.601 30.9997 33.1136 39.3506 23.3868 40.7057C22.4774 40.8318 21.5469 40.8977 20.6024 40.8977C19.5121 40.8977 18.4415 40.8108 17.3989 40.6427C7.87674 39.1095 0.60376 30.8525 0.60376 20.8984C0.60376 9.85261 9.55836 0.897705 20.6038 0.897705C31.6492 0.897705 40.6038 9.85261 40.6038 20.8984H40.601Z" fill="#1877F7"/>
<path id="Vector_2" d="M23.3024 16.9269V21.2894H28.527L27.6997 27.166H23.3024V40.7055C22.4207 40.8318 21.5187 40.8977 20.6031 40.8977C19.5462 40.8977 18.5084 40.8107 17.4977 40.6424V27.166H12.6793V21.2894H17.4977V15.9516C17.4977 12.6401 20.0964 9.95435 23.3037 9.95435V9.95715C23.3132 9.95715 23.3214 9.95435 23.3309 9.95435H28.5283V15.0367H25.1322C24.1229 15.0367 23.3037 15.8829 23.3037 16.9254L23.3024 16.9269Z" fill="white"/>
<path id="Vector_3" d="M91.9245 20.8977C91.9245 9.85201 83.1391 0.897705 72.3019 0.897705C61.4646 0.897705 52.6792 9.85201 52.6792 20.8977C52.6792 31.9434 61.4646 40.8977 72.3019 40.8977C83.1391 40.8977 91.9245 31.9434 91.9245 20.8977Z" fill="#FF0209"/>
<path id="Vector_4" d="M80.8033 29.5045C80.2066 29.5673 79.5959 29.5783 79.0104 29.5769C74.4437 29.5728 69.877 29.5687 65.3118 29.566C63.8749 29.566 62.31 29.5209 61.1996 28.6349C59.9485 27.6342 59.6882 25.8991 59.5869 24.3291C59.4461 22.1776 59.4349 20.0192 59.5503 17.8663C59.6136 16.684 59.7248 15.4731 60.2497 14.4028C60.6269 13.6342 61.2559 12.9434 62.0609 12.5803C62.9967 12.1584 63.9762 12.2335 64.9839 12.2322C67.396 12.2294 69.8081 12.2281 72.2202 12.2253C74.728 12.2226 77.2372 12.2212 79.745 12.2185C80.93 12.2185 82.2022 12.2417 83.169 12.9066C84.4173 13.7639 84.7564 15.3953 84.9126 16.8711C85.2011 19.5892 85.2054 22.3359 84.9239 25.054C84.8071 26.1748 84.6129 27.3598 83.8515 28.2103C83.0972 29.054 81.9784 29.3789 80.8047 29.5032L80.8033 29.5045Z" fill="white"/>
<path id="Vector_5" d="M76.0755 20.8985L69.283 16.7468V25.0487L76.0755 20.8985Z" fill="#FF0209"/>
<path id="Vector_6" d="M124.046 0.897705H123.954C112.934 0.897705 104 9.83162 104 20.8522V20.9433C104 31.9638 112.934 40.8977 123.954 40.8977H124.046C135.066 40.8977 144 31.9638 144 20.9433V20.8522C144 9.83162 135.066 0.897705 124.046 0.897705Z" fill="black"/>
<path id="Vector_7" d="M134.189 16.7631V20.5355C133.533 20.4711 132.68 20.3214 131.737 19.9742C130.506 19.5207 129.59 18.9006 128.989 18.4205V26.045L128.974 26.0212C128.984 26.1724 128.989 26.3264 128.989 26.4817C128.989 30.2681 125.924 33.3504 122.155 33.3504C118.386 33.3504 115.321 30.2681 115.321 26.4817C115.321 22.6954 118.386 19.6117 122.155 19.6117C122.524 19.6117 122.886 19.6411 123.24 19.6985V23.4162C122.9 23.2945 122.535 23.2287 122.155 23.2287C120.371 23.2287 118.918 24.6872 118.918 26.4817C118.918 28.2763 120.371 29.7348 122.155 29.7348C123.939 29.7348 125.392 28.2749 125.392 26.4817C125.392 26.4146 125.391 26.3474 125.386 26.2802V11.4636H129.137C129.151 11.7828 129.164 12.1047 129.177 12.4239C129.203 13.0524 129.425 13.6557 129.814 14.1498C130.269 14.7307 130.942 15.4054 131.886 15.9443C132.771 16.4482 133.601 16.6638 134.189 16.7659V16.7631Z" fill="#FF004F"/>
<path id="Vector_8" d="M132.679 13.7443V17.5167C132.023 17.4523 131.171 17.3026 130.228 16.9554C128.997 16.5019 128.08 15.8818 127.48 15.4017V23.0262L127.465 23.0024C127.474 23.1536 127.48 23.3076 127.48 23.4629C127.48 27.2493 124.414 30.3316 120.646 30.3316C116.877 30.3316 113.811 27.2493 113.811 23.4629C113.811 19.6766 116.877 16.5929 120.646 16.5929C121.015 16.5929 121.377 16.6223 121.731 16.6797V20.3975C121.391 20.2757 121.026 20.2099 120.646 20.2099C118.861 20.2099 117.409 21.6684 117.409 23.4629C117.409 25.2574 118.861 26.716 120.646 26.716C122.43 26.716 123.882 25.2561 123.882 23.4629C123.882 23.3958 123.881 23.3286 123.877 23.2614V8.44482H127.628C127.642 8.76397 127.654 9.08592 127.668 9.40506C127.693 10.0336 127.916 10.6369 128.304 11.131C128.76 11.7119 129.433 12.3866 130.377 12.9255C131.261 13.428 132.091 13.645 132.679 13.7471V13.7443Z" fill="#00F7EF"/>
<path id="Vector_9" d="M133.434 15.2539V19.0263C132.778 18.9619 131.926 18.8121 130.983 18.4649C129.751 18.0114 128.835 17.3913 128.235 16.9112V24.5357L128.219 24.5119C128.229 24.6631 128.235 24.8171 128.235 24.9725C128.235 28.7588 125.169 31.8411 121.4 31.8411C117.632 31.8411 114.566 28.7588 114.566 24.9725C114.566 21.1861 117.632 18.1024 121.4 18.1024C121.769 18.1024 122.132 18.1318 122.485 18.1892V21.907C122.146 21.7852 121.781 21.7194 121.4 21.7194C119.616 21.7194 118.164 23.178 118.164 24.9725C118.164 26.767 119.616 28.2255 121.4 28.2255C123.185 28.2255 124.637 26.7656 124.637 24.9725C124.637 24.9053 124.636 24.8381 124.632 24.7709V9.95435H128.382C128.396 10.2735 128.409 10.5954 128.423 10.9146C128.448 11.5431 128.671 12.1464 129.059 12.6405C129.515 13.2214 130.187 13.8961 131.132 14.435C132.016 14.9375 132.846 15.1545 133.434 15.2567V15.2539Z" fill="white"/>
</g>
</g>
</g>
</svg>
